<mxfile host="app.diagrams.net" modified="2024-07-12T00:34:43.801Z" agent="Mozilla/5.0 (Windows NT 10.0; Win64; x64) AppleWebKit/537.36 (KHTML, like Gecko) Chrome/126.0.0.0 Safari/537.36" etag="XTdJWAqNDn2DEL_anpvj" version="24.6.5" type="device">
  <diagram name="Page-1" id="88wx0Jed-fgGndGk5FEJ">
    <mxGraphModel dx="1626" dy="784" grid="1" gridSize="10" guides="1" tooltips="1" connect="1" arrows="1" fold="1" page="1" pageScale="1" pageWidth="850" pageHeight="1100" math="0" shadow="0">
      <root>
        <mxCell id="0" />
        <mxCell id="1" parent="0" />
        <mxCell id="XYl4yP9lUbdXv3ehCXy9-4" style="edgeStyle=orthogonalEdgeStyle;rounded=0;orthogonalLoop=1;jettySize=auto;html=1;exitX=0.5;exitY=0.5;exitDx=0;exitDy=0;exitPerimeter=0;" edge="1" parent="1" source="XYl4yP9lUbdXv3ehCXy9-1">
          <mxGeometry relative="1" as="geometry">
            <mxPoint x="420" y="460" as="targetPoint" />
          </mxGeometry>
        </mxCell>
        <mxCell id="XYl4yP9lUbdXv3ehCXy9-1" value="Actor" style="shape=umlActor;verticalLabelPosition=bottom;verticalAlign=top;html=1;" vertex="1" parent="1">
          <mxGeometry x="410" y="370" width="20" height="40" as="geometry" />
        </mxCell>
        <mxCell id="XYl4yP9lUbdXv3ehCXy9-5" value="Update pet care&lt;br&gt;profile" style="ellipse;whiteSpace=wrap;html=1;" vertex="1" parent="1">
          <mxGeometry x="365" y="460" width="110" height="50" as="geometry" />
        </mxCell>
        <mxCell id="XYl4yP9lUbdXv3ehCXy9-6" value="Edit pet care&lt;br&gt;profile" style="ellipse;whiteSpace=wrap;html=1;" vertex="1" parent="1">
          <mxGeometry x="510" y="480" width="110" height="50" as="geometry" />
        </mxCell>
        <mxCell id="XYl4yP9lUbdXv3ehCXy9-7" value="Search for pet" style="ellipse;whiteSpace=wrap;html=1;" vertex="1" parent="1">
          <mxGeometry x="620" y="420" width="110" height="50" as="geometry" />
        </mxCell>
        <mxCell id="XYl4yP9lUbdXv3ehCXy9-9" value="" style="endArrow=classic;html=1;rounded=0;entryX=0;entryY=0.5;entryDx=0;entryDy=0;" edge="1" parent="1" source="XYl4yP9lUbdXv3ehCXy9-5" target="XYl4yP9lUbdXv3ehCXy9-7">
          <mxGeometry width="50" height="50" relative="1" as="geometry">
            <mxPoint x="400" y="430" as="sourcePoint" />
            <mxPoint x="450" y="380" as="targetPoint" />
          </mxGeometry>
        </mxCell>
        <mxCell id="XYl4yP9lUbdXv3ehCXy9-10" value="" style="endArrow=classic;html=1;rounded=0;entryX=0.082;entryY=0.22;entryDx=0;entryDy=0;entryPerimeter=0;exitX=0.982;exitY=0.3;exitDx=0;exitDy=0;exitPerimeter=0;" edge="1" parent="1" source="XYl4yP9lUbdXv3ehCXy9-5" target="XYl4yP9lUbdXv3ehCXy9-6">
          <mxGeometry width="50" height="50" relative="1" as="geometry">
            <mxPoint x="464" y="475" as="sourcePoint" />
            <mxPoint x="550" y="425" as="targetPoint" />
          </mxGeometry>
        </mxCell>
      </root>
    </mxGraphModel>
  </diagram>
</mxfile>
